<?xml version="1.0" encoding="UTF-8"?>
<svg width="207px" height="54px" viewBox="0 0 207 54" version="1.1" xmlns="http://www.w3.org/2000/svg" xmlns:xlink="http://www.w3.org/1999/xlink">
    <!-- Generator: Sketch 45.2 (43514) - http://www.bohemiancoding.com/sketch -->
    <title>New Logo</title>
    <desc>Created with Sketch.</desc>
    <defs></defs>
    <g id="Page-1" stroke="none" stroke-width="1" fill="none" fill-rule="evenodd">
        <g id="Desktop-HD" transform="translate(-45.000000, -29.000000)">
            <g id="New-Logo" transform="translate(45.000000, 29.000000)">
                <g id="Brand-Text" transform="translate(62.000000, 17.000000)">
                    <path d="M139.199001,17.8092963 C138.867855,14.5914927 136.967101,12.0758433 133.660493,12.0758433 C130.602547,12.0758433 128.45313,14.4268496 127.998259,17.8092963 L139.199001,17.8092963 Z M123.038346,19.3358766 C123.038346,13.1072837 127.460905,7.99124226 133.701734,7.99124226 C140.646098,7.99124226 144.158914,13.4365699 144.158914,19.7063235 C144.158914,20.0368203 144.117673,20.8624569 144.076431,21.1094215 L128.039501,21.1094215 C128.576855,24.6565113 131.09866,26.6370707 134.321572,26.6370707 C136.760893,26.6370707 138.496681,25.7291125 140.232468,24.0378892 L143.166689,26.6370707 C141.099755,29.1115593 138.248018,30.7204611 134.239089,30.7204611 C127.915776,30.7204611 123.038346,26.1419308 123.038346,19.3358766 L123.038346,19.3358766 Z M117.458596,19.4290936 C117.458596,15.2210103 114.606858,12.4571857 111.217767,12.4571857 C107.828675,12.4571857 104.851999,15.2621711 104.851999,19.5114152 C104.851999,23.7182879 107.828675,26.4833231 111.217767,26.4833231 C114.6481,26.4833231 117.458596,23.80182 117.458596,19.4290936 L117.458596,19.4290936 Z M99.9745697,8.57959914 L104.975724,8.57959914 L104.975724,12.2102211 C106.587787,9.94153635 108.860929,8.12683068 112.374958,8.12683068 C117.541079,8.12683068 122.542234,12.2102211 122.542234,19.5114152 C122.542234,26.7302877 117.582321,30.8136781 112.374958,30.8136781 C108.778445,30.8136781 106.505304,28.9989725 104.975724,26.9772523 L104.975724,36.9599494 L99.9745697,36.9599494 L99.9745697,8.57959914 Z M94.0648863,19.5114152 C94.0648863,15.6749894 91.295632,12.4983465 87.369186,12.4983465 C83.3602567,12.4983465 80.7972105,15.6338286 80.7972105,19.5114152 C80.7972105,23.3066802 83.5664648,26.5232733 87.4516692,26.5232733 C91.5018402,26.5232733 94.0648863,23.347841 94.0648863,19.5114152 L94.0648863,19.5114152 Z M75.796056,19.5114152 C75.796056,13.2828223 80.7559689,8.12683068 87.4516692,8.12683068 C94.1473696,8.12683068 99.0660408,13.2005008 99.0660408,19.5114152 C99.0660408,25.6988473 94.106128,30.8548389 87.369186,30.8548389 C80.7147272,30.8548389 75.796056,25.7811688 75.796056,19.5114152 L75.796056,19.5114152 Z M63.3556388,8.57959914 L68.3567933,8.57959914 L68.3567933,13.4886262 C69.7201931,10.2296617 72.2419977,8.00213776 76.0847475,8.16799145 L76.0847475,13.4474654 L75.796056,13.4474654 C71.414739,13.4474654 68.3567933,16.2936115 68.3567933,22.0694359 L68.3567933,30.3596991 L63.3556388,30.3596991 L63.3556388,8.57959914 Z" id="Brand-Text-Rope" fill="#FFFFFF"></path>
                    <path d="M50.7175044,24.3381207 L50.7175044,12.870004 L46.7534557,12.870004 L49.3783643,8.57959914 L50.7175044,8.57959914 L50.7175044,2.59918151 L55.7186588,2.59918151 L55.7186588,8.57959914 L61.5871006,8.57959914 L61.5871006,12.870004 L55.7186588,12.870004 L55.7186588,23.5536448 C55.7186588,25.4930434 56.709671,26.2763086 58.4042169,26.2763086 C59.52138,26.2763086 60.5123921,26.029344 61.5046173,25.5342042 L61.5046173,29.6175946 C60.2649423,30.3185383 58.8590879,30.7313566 56.9995754,30.7313566 C53.3205792,30.7313566 50.7175044,29.1224548 50.7175044,24.3381207 L50.7175044,24.3381207 Z M29.9365734,27.5135529 L32.1684735,24.1311062 C34.5240986,25.9058617 37.0859317,26.8126092 39.3178319,26.8126092 C41.4672487,26.8126092 42.7069237,25.9058617 42.7069237,24.3792814 C42.7069237,22.7703796 40.5999615,22.1929182 38.2018818,21.4919745 C38.0781569,21.4496032 37.954432,21.4084424 37.8307071,21.3672816 C34.6065818,20.4193733 31.0112818,19.0985969 31.0112818,14.8505634 C31.0112818,10.7248016 34.4416153,8.20915222 38.7804777,8.20915222 C41.5084904,8.20915222 44.4851659,9.15706052 46.7995492,10.6836408 L44.8150989,14.2319412 C42.7069237,12.9523256 40.4750236,12.1690603 38.6567528,12.1690603 C36.7147571,12.1690603 35.598807,13.0758079 35.598807,14.4377451 C35.598807,15.9231646 37.7057692,16.5829475 40.1038489,17.3662127 C40.2275738,17.4073735 40.3925403,17.4485343 40.5174782,17.489695 C43.6991489,18.4799747 47.2956618,19.9242335 47.2956618,23.9253024 C47.2956618,28.5038326 43.7403905,30.7725174 39.194107,30.7725174 C36.0949196,30.7725174 32.6645861,29.6587554 29.9365734,27.5135529 L29.9365734,27.5135529 Z M23.8279598,21.2437993 C22.5470432,20.7486595 20.770014,20.3782125 18.8268053,20.3782125 C15.6863763,20.3782125 13.8256509,21.6566176 13.8256509,23.8429808 C13.8256509,25.9058617 15.6863763,27.0595739 18.0420013,27.0595739 C21.3486099,27.0595739 23.8279598,25.2037074 23.8279598,22.4810436 L23.8279598,21.2437993 Z M23.7042349,30.3596991 L23.7042349,27.6794066 C22.2158972,29.4529515 19.9427554,30.8136781 16.6361469,30.8136781 C12.5034927,30.8136781 8.86573805,28.4626718 8.86573805,24.0076239 C8.86573805,19.1809184 12.6272176,16.8710729 17.7108553,16.8710729 C20.3563847,16.8710729 22.0509306,17.2427304 23.7454765,17.779031 L23.7454765,17.3662127 C23.7454765,14.3554235 21.8447225,12.7053609 18.3719344,12.7053609 C15.9338261,12.7053609 14.1155553,13.2416615 12.131105,14.0660875 L10.7677051,10.0650187 C13.1645718,8.99241744 15.5201968,8.25031299 19.0754681,8.25031299 C25.5225057,8.25031299 28.6641477,11.6327597 28.6641477,17.4485343 L28.6641477,30.3596991 L23.7042349,30.3596991 Z M0,8.70429206 L0,7.136551 C0,4.70201257 0.61983748,2.88730689 1.77702918,1.73238414 C2.93422087,0.577461379 4.54628351,0 6.69570037,0 C8.43148792,0 9.62992124,0.246964615 10.7458713,0.577461379 L10.7458713,4.78554472 C9.75364614,4.45504795 8.88635887,4.24924411 7.81165044,4.24924411 C5.90968337,4.24924411 4.9186712,5.27947395 4.9186712,7.5493693 L4.9186712,8.74545283 L8.47758151,8.74545283 L9.77669294,12.9026905 L5.00115446,12.870004 L5.00115446,30.3596991 L0,30.3596991 L0,12.870004 L0,8.70429206 Z" id="Brand-Text-Fast" fill="#FFB100"></path>
                </g>
                <g id="fr-logo-white">
                    <polygon id="Fill-1" fill="#FFFFFF" points="17.3141626 -5.68434189e-14 17.3141626 11.6423435 34.2556126 11.6423435 34.2556126 26.9743054 17.3141626 26.9743054 17.3141626 38.6166489 30.2059155 53.6699063 47.1201227 53.6699063 34.2283698 38.6166489 47.1201227 38.6166489 47.1201227 -5.68434189e-14"></polygon>
                    <polygon id="Fill-2" fill="#FFB100" points="0 27.0943382 16.9426344 27.0943382 16.9426344 11.7623762 0 11.7623762"></polygon>
                </g>
            </g>
        </g>
    </g>
</svg>